<svg xmlns="http://www.w3.org/2000/svg" viewBox="0 0 64 64" fill="none">
  <defs>
    <linearGradient id="g" x1="0%" y1="0%" x2="100%" y2="100%">
      <stop offset="0%" stop-color="#E2B93B"/>
      <stop offset="50%" stop-color="#5BBE8A"/>
      <stop offset="100%" stop-color="#2CB5C8"/>
    </linearGradient>
  </defs>
  <path d="M32 4c2.2 0 4.3.6 6.1 1.8l12.5 7.8c3.7 2.3 6 6.4 6 10.8v15.2c0 4.4-2.3 8.5-6 10.8l-12.5 7.8c-3.7 2.3-8.5 2.3-12.2 0l-12.5-7.8c-3.7-2.3-6-6.4-6-10.8V24.4c0-4.4 2.3-8.5 6-10.8L25.9 5.8C27.7 4.6 29.8 4 32 4z" stroke="url(#g)" stroke-width="3" fill="none"/>
  <circle cx="24" cy="28" r="4.5" fill="url(#g)"/>
  <circle cx="40" cy="28" r="3.5" fill="url(#g)"/>
  <circle cx="32" cy="40" r="4" fill="url(#g)"/>
  <line x1="27.5" y1="30" x2="37" y2="27" stroke="url(#g)" stroke-width="2.5" stroke-linecap="round"/>
  <line x1="36.5" y1="30.5" x2="34" y2="37" stroke="url(#g)" stroke-width="2.5" stroke-linecap="round"/>
</svg>
